<svg width="154" height="25" viewBox="0 0 154 25" fill="none" xmlns="http://www.w3.org/2000/svg">
<path d="M0.500488 19V16.8638L1.77002 16.6807L7.42188 1.22656H11.0718L16.687 16.6807L17.9565 16.8638V19H11.9019V16.8638L13.1348 16.644L12.3535 14.2026H6.10352L5.32227 16.644L6.55518 16.8638V19H0.500488ZM6.9458 11.5781H11.5112L9.43604 5.48682L9.26514 4.94971H9.19189L9.00879 5.52344L6.9458 11.5781ZM19.4946 19V16.8638L21.2036 16.4976V8.30664L19.3115 7.94043V5.79199H24.5239L24.6582 7.42773L24.6826 7.7207C25.3337 6.27214 26.3102 5.54785 27.6123 5.54785C27.8239 5.54785 28.0518 5.56413 28.2959 5.59668C28.5482 5.62923 28.776 5.67806 28.9795 5.74316L28.6011 9.02686L26.8311 8.9292C26.3265 8.90479 25.9155 8.99023 25.5981 9.18555C25.2889 9.38086 25.0122 9.66162 24.7681 10.0278V16.4976L26.4771 16.8638V19H19.4946ZM36.1206 19.2563C34.8511 19.2563 33.7443 18.9797 32.8003 18.4263C31.8644 17.8647 31.1361 17.0957 30.6152 16.1191C30.1025 15.1426 29.8462 14.0277 29.8462 12.7744V12.2861C29.8462 10.9759 30.0903 9.81624 30.5786 8.80713C31.0669 7.78988 31.7546 6.99235 32.6416 6.41455C33.5368 5.82861 34.5907 5.53971 35.8032 5.54785C37.5854 5.54785 38.9486 6.07275 39.8926 7.12256C40.8366 8.16423 41.3086 9.62907 41.3086 11.5171V13.458H33.5449L33.5205 13.5312C33.5856 14.402 33.8745 15.1182 34.3872 15.6797C34.8999 16.2412 35.6283 16.522 36.5723 16.522C37.2233 16.522 37.8296 16.4406 38.3911 16.2778C38.9608 16.1069 39.5142 15.8587 40.0513 15.5332L41.0156 17.7305C40.4704 18.1699 39.7827 18.5361 38.9526 18.8291C38.1307 19.1139 37.1867 19.2563 36.1206 19.2563ZM33.5693 11.1021H37.9761V10.7847C37.9761 9.98714 37.8092 9.35645 37.4756 8.89258C37.1501 8.42057 36.613 8.18457 35.8643 8.18457C35.1481 8.18457 34.6029 8.45719 34.2285 9.00244C33.8542 9.53955 33.6222 10.2191 33.5327 11.041L33.5693 11.1021ZM42.8223 19V16.8638L44.5312 16.4976V8.30664L42.6392 7.94043V5.79199H47.8516L48.0103 7.68408C48.4497 7.00863 48.9909 6.48372 49.6338 6.10938C50.2848 5.73503 51.0254 5.54785 51.8555 5.54785C53.1576 5.54785 54.1789 5.96696 54.9194 6.80518C55.6681 7.64339 56.0425 8.95768 56.0425 10.748V16.4976L57.7515 16.8638V19H50.9399V16.8638L52.4658 16.4976V10.7603C52.4658 9.87321 52.2868 9.24658 51.9287 8.88037C51.5788 8.50602 51.062 8.31885 50.3784 8.31885C49.3856 8.31885 48.6247 8.73389 48.0957 9.56396V16.4976L49.5361 16.8638V19H42.8223ZM64.9902 19.2563C63.7207 19.2563 62.6221 18.9715 61.6943 18.4019C60.7747 17.8322 60.0667 17.0469 59.5703 16.0459C59.0739 15.0449 58.8257 13.8934 58.8257 12.5913V12.2251C58.8257 10.9312 59.078 9.78369 59.5825 8.78271C60.0871 7.7736 60.7992 6.98421 61.7188 6.41455C62.6383 5.83675 63.7207 5.54785 64.9658 5.54785C66.1458 5.54785 67.1672 5.73503 68.0298 6.10938C68.8924 6.47559 69.5923 6.90283 70.1294 7.39111L70.105 11.1753H67.4194L66.9434 8.81934C66.748 8.62402 66.4998 8.46533 66.1987 8.34326C65.8976 8.22119 65.5924 8.16016 65.2832 8.16016C64.3066 8.16016 63.5783 8.5223 63.0981 9.24658C62.6261 9.96273 62.3901 10.9556 62.3901 12.2251V12.5913C62.3901 13.9504 62.6465 14.9473 63.1592 15.582C63.6719 16.2087 64.2904 16.522 65.0146 16.522C65.6413 16.522 66.1418 16.3592 66.5161 16.0337C66.8986 15.7 67.1631 15.2321 67.3096 14.6299H70.3491L70.3857 14.7031C70.1742 16.111 69.6533 17.2218 68.8232 18.0356C67.9932 18.8494 66.7155 19.2563 64.9902 19.2563ZM75.647 24.3345C75.3459 24.3345 75.0203 24.306 74.6704 24.249C74.3205 24.2002 73.9909 24.131 73.6816 24.0415L74.0845 21.4292C74.2391 21.4618 74.41 21.4862 74.5972 21.5024C74.7843 21.5187 74.9471 21.5269 75.0854 21.5269C76.1597 21.5269 76.8758 21.006 77.2339 19.9644L77.5269 19.1465L73.1079 8.17236L71.4844 7.94043V5.79199H78.4912V7.94043L76.8799 8.18457L78.9551 14.0073L79.2114 14.7275H79.2847L81.7383 8.16016L80.1636 7.94043V5.79199H86.6943V7.94043L85.2051 8.14795L80.1636 20.9653C79.9194 21.5757 79.6061 22.1372 79.2236 22.6499C78.8493 23.1626 78.3691 23.5695 77.7832 23.8706C77.2054 24.1799 76.4933 24.3345 75.647 24.3345ZM100.977 19.2563C99.6663 19.2563 98.4741 19.1099 97.3999 18.8169C96.3257 18.5239 95.2677 18.0153 94.2261 17.291V12.9941H96.9849L97.3633 15.521C97.7214 15.8302 98.2218 16.0825 98.8647 16.2778C99.5158 16.465 100.22 16.5586 100.977 16.5586C101.945 16.5586 102.686 16.3633 103.198 15.9727C103.711 15.5739 103.967 15.0368 103.967 14.3613C103.967 13.7266 103.723 13.1935 103.235 12.7622C102.755 12.3228 101.908 11.9159 100.696 11.5415C98.5881 10.9312 97.0174 10.2069 95.9839 9.36865C94.9504 8.53044 94.4336 7.38298 94.4336 5.92627C94.4336 4.96598 94.6981 4.11963 95.2271 3.38721C95.7642 2.64665 96.5047 2.06478 97.4487 1.6416C98.3927 1.21842 99.4832 0.998698 100.72 0.982422C102.087 0.966146 103.296 1.12891 104.346 1.4707C105.404 1.8125 106.315 2.28857 107.08 2.89893V6.90283H104.407L103.943 4.46143C103.634 4.26611 103.215 4.09521 102.686 3.94873C102.165 3.80225 101.571 3.729 100.903 3.729C100.049 3.729 99.349 3.92025 98.8037 4.30273C98.2585 4.68522 97.9858 5.22233 97.9858 5.91406C97.9858 6.50814 98.2381 7.00456 98.7427 7.40332C99.2554 7.79395 100.195 8.20898 101.562 8.64844C103.524 9.19368 105.009 9.9139 106.018 10.8091C107.035 11.7043 107.544 12.8802 107.544 14.3369C107.544 15.3542 107.271 16.229 106.726 16.9614C106.181 17.6938 105.412 18.2594 104.419 18.6582C103.434 19.057 102.287 19.2563 100.977 19.2563ZM114.233 19.2563C113.005 19.2563 112.056 18.9186 111.389 18.2432C110.73 17.5677 110.4 16.4976 110.4 15.0327V8.29443H108.582V5.79199H110.4V2.55713H113.953V5.79199H116.382V8.29443H113.953V15.0205C113.953 15.5332 114.058 15.8994 114.27 16.1191C114.49 16.3389 114.787 16.4487 115.161 16.4487C115.356 16.4487 115.568 16.4365 115.796 16.4121C116.024 16.3796 116.219 16.347 116.382 16.3145L116.687 18.8901C116.329 18.9959 115.934 19.0814 115.503 19.1465C115.072 19.2197 114.648 19.2563 114.233 19.2563ZM124.011 19.2563C122.701 19.2563 121.578 18.9715 120.642 18.4019C119.714 17.8322 119.002 17.0428 118.506 16.0337C118.009 15.0164 117.761 13.8486 117.761 12.5303V12.2739C117.761 10.9637 118.009 9.80404 118.506 8.79492C119.002 7.77767 119.714 6.98421 120.642 6.41455C121.578 5.83675 122.693 5.54785 123.987 5.54785C125.289 5.54785 126.404 5.83268 127.332 6.40234C128.267 6.97201 128.984 7.76546 129.48 8.78271C129.976 9.79183 130.225 10.9556 130.225 12.2739V12.5303C130.225 13.8486 129.976 15.0164 129.48 16.0337C128.984 17.0428 128.271 17.8322 127.344 18.4019C126.416 18.9715 125.305 19.2563 124.011 19.2563ZM124.011 16.522C124.931 16.522 125.602 16.1558 126.025 15.4233C126.457 14.6909 126.672 13.7266 126.672 12.5303V12.2739C126.672 11.1021 126.457 10.1458 126.025 9.40527C125.594 8.66471 124.915 8.29443 123.987 8.29443C123.059 8.29443 122.384 8.66471 121.96 9.40527C121.537 10.1458 121.326 11.1021 121.326 12.2739V12.5303C121.326 13.7347 121.537 14.7031 121.96 15.4355C122.384 16.1598 123.067 16.522 124.011 16.522ZM132.092 19V16.8638L133.801 16.4976V8.30664L131.909 7.94043V5.79199H137.122L137.256 7.42773L137.28 7.7207C137.931 6.27214 138.908 5.54785 140.21 5.54785C140.422 5.54785 140.649 5.56413 140.894 5.59668C141.146 5.62923 141.374 5.67806 141.577 5.74316L141.199 9.02686L139.429 8.9292C138.924 8.90479 138.513 8.99023 138.196 9.18555C137.887 9.38086 137.61 9.66162 137.366 10.0278V16.4976L139.075 16.8638V19H132.092ZM148.718 19.2563C147.449 19.2563 146.342 18.9797 145.398 18.4263C144.462 17.8647 143.734 17.0957 143.213 16.1191C142.7 15.1426 142.444 14.0277 142.444 12.7744V12.2861C142.444 10.9759 142.688 9.81624 143.176 8.80713C143.665 7.78988 144.352 6.99235 145.239 6.41455C146.134 5.82861 147.188 5.53971 148.401 5.54785C150.183 5.54785 151.546 6.07275 152.49 7.12256C153.434 8.16423 153.906 9.62907 153.906 11.5171V13.458H146.143L146.118 13.5312C146.183 14.402 146.472 15.1182 146.985 15.6797C147.498 16.2412 148.226 16.522 149.17 16.522C149.821 16.522 150.427 16.4406 150.989 16.2778C151.558 16.1069 152.112 15.8587 152.649 15.5332L153.613 17.7305C153.068 18.1699 152.38 18.5361 151.55 18.8291C150.728 19.1139 149.784 19.2563 148.718 19.2563ZM146.167 11.1021H150.574V10.7847C150.574 9.98714 150.407 9.35645 150.073 8.89258C149.748 8.42057 149.211 8.18457 148.462 8.18457C147.746 8.18457 147.201 8.45719 146.826 9.00244C146.452 9.53955 146.22 10.2191 146.13 11.041L146.167 11.1021Z" fill="black"/>
</svg>
